<?xml version="1.0" encoding="utf-8" standalone="no"?>
<!DOCTYPE svg PUBLIC "-//W3C//DTD SVG 1.1//EN"
  "http://www.w3.org/Graphics/SVG/1.1/DTD/svg11.dtd">
<svg xmlns:xlink="http://www.w3.org/1999/xlink" width="1440pt" height="810pt" viewBox="0 0 1440 810" xmlns="http://www.w3.org/2000/svg" version="1.1">
 <metadata>
  <rdf:RDF xmlns:dc="http://purl.org/dc/elements/1.1/" xmlns:cc="http://creativecommons.org/ns#" xmlns:rdf="http://www.w3.org/1999/02/22-rdf-syntax-ns#">
   <cc:Work>
    <dc:type rdf:resource="http://purl.org/dc/dcmitype/StillImage"/>
    <dc:date>2026-09-30T17:21:19.408585</dc:date>
    <dc:format>image/svg+xml</dc:format>
    <dc:creator>
     <cc:Agent>
      <dc:title>Matplotlib v3.11.1, https://matplotlib.org/</dc:title>
     </cc:Agent>
    </dc:creator>
   </cc:Work>
  </rdf:RDF>
 </metadata>
 <defs>
  <style type="text/css">*{stroke-linejoin: round; stroke-linecap: butt}</style>
 </defs>
 <g id="figure_1">
  <g id="patch_1">
   <path d="M 0 810 
L 1440 810 
L 1440 0 
L 0 0 
z
" style="fill: #ffffff"/>
  </g>
  <g id="axes_1">
   <g id="patch_2">
    <path d="M 108 619.65 
L 1360.8 619.65 
L 1360.8 145.8 
L 108 145.8 
z
" style="fill: #ffffff"/>
   </g>
   <g id="line2d_1">
    <path d="M 108 292.856897 
L 1360.8 292.856897 
" clip-path="url(#pa8bb1d62c0)" style="fill: none; stroke-dasharray: 4.4,4.4; stroke-dashoffset: 0; stroke: #bb7777; stroke-width: 1.1"/>
   </g>
   <g id="matplotlib.axis_1">
    <g id="xtick_1">
     <g id="line2d_2"/>
     <g id="text_1">
      <text style="font-size: 11px; font-family: 'DejaVu Sans'; text-anchor: middle; fill: #64717b" x="162.947368" y="636.007422" transform="rotate(-0 162.947368 636.007422)">Jun 15</text>
     </g>
    </g>
    <g id="xtick_2">
     <g id="line2d_3"/>
     <g id="text_2">
      <text style="font-size: 11px; font-family: 'DejaVu Sans'; text-anchor: middle; fill: #64717b" x="338.778947" y="636.008281" transform="rotate(-0 338.778947 636.008281)">Jul 01</text>
     </g>
    </g>
    <g id="xtick_3">
     <g id="line2d_4"/>
     <g id="text_3">
      <text style="font-size: 11px; font-family: 'DejaVu Sans'; text-anchor: middle; fill: #64717b" x="492.631579" y="636.008281" transform="rotate(-0 492.631579 636.008281)">Jul 15</text>
     </g>
    </g>
    <g id="xtick_4">
     <g id="line2d_5"/>
     <g id="text_4">
      <text style="font-size: 11px; font-family: 'DejaVu Sans'; text-anchor: middle; fill: #64717b" x="679.452632" y="636.007422" transform="rotate(-0 679.452632 636.007422)">Aug 01</text>
     </g>
    </g>
    <g id="xtick_5">
     <g id="line2d_6"/>
     <g id="text_5">
      <text style="font-size: 11px; font-family: 'DejaVu Sans'; text-anchor: middle; fill: #64717b" x="833.305263" y="636.007422" transform="rotate(-0 833.305263 636.007422)">Aug 15</text>
     </g>
    </g>
    <g id="xtick_6">
     <g id="line2d_7"/>
     <g id="text_6">
      <text style="font-size: 11px; font-family: 'DejaVu Sans'; text-anchor: middle; fill: #64717b" x="1020.126316" y="636.007422" transform="rotate(-0 1020.126316 636.007422)">Sep 01</text>
     </g>
    </g>
    <g id="xtick_7">
     <g id="line2d_8"/>
     <g id="text_7">
      <text style="font-size: 11px; font-family: 'DejaVu Sans'; text-anchor: middle; fill: #64717b" x="1173.978947" y="636.007422" transform="rotate(-0 1173.978947 636.007422)">Sep 15</text>
     </g>
    </g>
    <g id="xtick_8">
     <g id="line2d_9"/>
     <g id="text_8">
      <text style="font-size: 11px; font-family: 'DejaVu Sans'; text-anchor: middle; fill: #64717b" x="1338.821053" y="636.007422" transform="rotate(-0 1338.821053 636.007422)">Sep 30</text>
     </g>
    </g>
   </g>
   <g id="matplotlib.axis_2">
    <g id="ytick_1">
     <g id="line2d_10">
      <path d="M 108 619.65 
L 1360.8 619.65 
" clip-path="url(#pa8bb1d62c0)" style="fill: none; stroke: #e4e9ed; stroke-width: 0.8; stroke-linecap: square"/>
     </g>
     <g id="line2d_11"/>
     <g id="text_9">
      <text style="font-size: 11px; font-family: 'DejaVu Sans'; text-anchor: end; fill: #64717b" x="100" y="623.828711" transform="rotate(-0 100 623.828711)">0.0</text>
     </g>
    </g>
    <g id="ytick_2">
     <g id="line2d_12">
      <path d="M 108 510.718966 
L 1360.8 510.718966 
" clip-path="url(#pa8bb1d62c0)" style="fill: none; stroke: #e4e9ed; stroke-width: 0.8; stroke-linecap: square"/>
     </g>
     <g id="line2d_13"/>
     <g id="text_10">
      <text style="font-size: 11px; font-family: 'DejaVu Sans'; text-anchor: end; fill: #64717b" x="100" y="514.897676" transform="rotate(-0 100 514.897676)">0.2</text>
     </g>
    </g>
    <g id="ytick_3">
     <g id="line2d_14">
      <path d="M 108 401.787931 
L 1360.8 401.787931 
" clip-path="url(#pa8bb1d62c0)" style="fill: none; stroke: #e4e9ed; stroke-width: 0.8; stroke-linecap: square"/>
     </g>
     <g id="line2d_15"/>
     <g id="text_11">
      <text style="font-size: 11px; font-family: 'DejaVu Sans'; text-anchor: end; fill: #64717b" x="100" y="405.966642" transform="rotate(-0 100 405.966642)">0.4</text>
     </g>
    </g>
    <g id="ytick_4">
     <g id="line2d_16">
      <path d="M 108 292.856897 
L 1360.8 292.856897 
" clip-path="url(#pa8bb1d62c0)" style="fill: none; stroke: #e4e9ed; stroke-width: 0.8; stroke-linecap: square"/>
     </g>
     <g id="line2d_17"/>
     <g id="text_12">
      <text style="font-size: 11px; font-family: 'DejaVu Sans'; text-anchor: end; fill: #64717b" x="100" y="297.035607" transform="rotate(-0 100 297.035607)">0.6</text>
     </g>
    </g>
    <g id="ytick_5">
     <g id="line2d_18">
      <path d="M 108 183.925862 
L 1360.8 183.925862 
" clip-path="url(#pa8bb1d62c0)" style="fill: none; stroke: #e4e9ed; stroke-width: 0.8; stroke-linecap: square"/>
     </g>
     <g id="line2d_19"/>
     <g id="text_13">
      <text style="font-size: 11px; font-family: 'DejaVu Sans'; text-anchor: end; fill: #64717b" x="100" y="188.104573" transform="rotate(-0 100 188.104573)">0.8</text>
     </g>
    </g>
    <g id="text_14">
     <text style="font-size: 12px; font-family: 'DejaVu Sans'; text-anchor: middle; fill: #64717b" x="65.62375" y="382.725" transform="rotate(-90 65.62375 382.725)">Contact R-precision · all ranges</text>
    </g>
   </g>
   <g id="line2d_20">
    <path d="M 228.884211 388.42803 
L 503.621053 388.42803 
L 503.621053 382.32762 
L 569.557895 382.32762 
L 569.557895 328.576363 
L 624.505263 328.576363 
L 624.505263 328.576363 
L 635.494737 328.576363 
L 635.494737 328.576363 
L 668.463158 328.576363 
L 668.463158 313.67694 
L 679.452632 313.67694 
L 679.452632 313.67694 
L 756.378947 313.67694 
L 756.378947 313.67694 
L 767.368421 313.67694 
L 767.368421 304.178717 
L 778.357895 304.178717 
L 778.357895 288.037051 
L 800.336842 288.037051 
L 800.336842 288.037051 
L 833.305263 288.037051 
L 833.305263 276.145505 
L 855.284211 276.145505 
L 855.284211 276.145505 
L 866.273684 276.145505 
L 866.273684 276.145505 
L 910.231579 276.145505 
L 910.231579 276.145505 
L 1152 276.145505 
L 1152 276.145505 
L 1217.936842 276.145505 
L 1217.936842 276.145505 
L 1338.821053 276.145505 
L 1338.821053 276.145505 
" clip-path="url(#pa8bb1d62c0)" style="fill: none; stroke: #20282e; stroke-width: 2.5; stroke-linecap: square"/>
   </g>
   <g id="line2d_21">
    <path d="M 855.284211 304.325988 
L 866.273684 304.325988 
L 866.273684 297.412882 
L 910.231579 297.412882 
L 910.231579 290.101662 
L 1152 290.101662 
L 1152 281.68685 
L 1217.936842 281.68685 
L 1217.936842 280.855771 
L 1338.821053 280.855771 
L 1338.821053 280.855771 
" clip-path="url(#pa8bb1d62c0)" style="fill: none; stroke: #008578; stroke-width: 2.6; stroke-linecap: square"/>
   </g>
   <g id="patch_3">
    <path d="M 108 619.65 
L 108 145.8 
" style="fill: none; stroke: #c9d1d7; stroke-width: 0.8; stroke-linejoin: miter; stroke-linecap: square"/>
   </g>
   <g id="patch_4">
    <path d="M 108 619.65 
L 1360.8 619.65 
" style="fill: none; stroke: #c9d1d7; stroke-width: 0.8; stroke-linejoin: miter; stroke-linecap: square"/>
   </g>
   <g id="text_15">
    <text style="font-size: 11px; font-family: 'DejaVu Sans'; text-anchor: start; fill: #a15b5b" x="272.842105" y="286.86569" transform="rotate(-0 272.842105 286.86569)">August goal  0.600</text>
   </g>
   <g id="patch_5">
    <path d="M 243.228671 555.513811 
Q 214.851466 578.777572 186.47426 602.041333 
" style="fill: none; stroke: #c9b7ac; stroke-width: 0.9; stroke-linecap: round"/>
   </g>
   <g id="text_16">
    <text style="font-size: 10px; font-family: 'DejaVu Sans'; fill: #de713c" transform="translate(209.165132 536.842874)">Early pairwise scores</text>
    <text style="font-size: 10px; font-family: 'DejaVu Sans'; fill: #de713c" transform="translate(230.724507 548.844828)">0.028–0.031</text>
   </g>
   <g id="text_17">
    <text style="font-size: 10.5px; font-family: 'DejaVu Sans'; text-anchor: end; fill: #20282e" x="1338.821053" y="263.445517" transform="rotate(-0 1338.821053 263.445517)">Historical best  0.631</text>
   </g>
   <g id="text_18">
    <text style="font-size: 10.5px; font-family: 'DejaVu Sans'; text-anchor: end; fill: #008578" x="1338.821053" y="305.383966" transform="rotate(-0 1338.821053 305.383966)">New lineage  0.622</text>
   </g>
   <g id="text_19">
    <text style="font-size: 15px; font-family: 'DejaVu Sans'; text-anchor: start; fill: #20282e" x="108" y="127.8" transform="rotate(-0 108 127.8)">Historical benchmark · 554 proteins</text>
   </g>
   <g id="PathCollection_1">
    <defs>
     <path id="mf454f13d8f" d="M 0 4.092676 
C 1.08539 4.092676 2.126472 3.661446 2.893959 2.893959 
C 3.661446 2.126472 4.092676 1.08539 4.092676 0 
C 4.092676 -1.08539 3.661446 -2.126472 2.893959 -2.893959 
C 2.126472 -3.661446 1.08539 -4.092676 0 -4.092676 
C -1.08539 -4.092676 -2.126472 -3.661446 -2.893959 -2.893959 
C -3.661446 -2.126472 -4.092676 -1.08539 -4.092676 0 
C -4.092676 1.08539 -3.661446 2.126472 -2.893959 2.893959 
C -2.126472 3.661446 -1.08539 4.092676 0 4.092676 
z
" style="stroke: #ffffff; stroke-width: 1.5"/>
    </defs>
    <g clip-path="url(#pa8bb1d62c0)">
     <use xlink:href="#mf454f13d8f" x="228.884211" y="388.42803" style="fill: #2877cf; stroke: #ffffff; stroke-width: 1.5"/>
     <use xlink:href="#mf454f13d8f" x="503.621053" y="382.32762" style="fill: #2877cf; stroke: #ffffff; stroke-width: 1.5"/>
     <use xlink:href="#mf454f13d8f" x="569.557895" y="329.99922" style="fill: #2877cf; stroke: #ffffff; stroke-width: 1.5"/>
     <use xlink:href="#mf454f13d8f" x="569.557895" y="328.576363" style="fill: #2877cf; stroke: #ffffff; stroke-width: 1.5"/>
     <use xlink:href="#mf454f13d8f" x="624.505263" y="340.861061" style="fill: #2877cf; stroke: #ffffff; stroke-width: 1.5"/>
     <use xlink:href="#mf454f13d8f" x="635.494737" y="393.155582" style="fill: #2877cf; stroke: #ffffff; stroke-width: 1.5"/>
     <use xlink:href="#mf454f13d8f" x="668.463158" y="313.67694" style="fill: #2877cf; stroke: #ffffff; stroke-width: 1.5"/>
     <use xlink:href="#mf454f13d8f" x="679.452632" y="317.638707" style="fill: #2877cf; stroke: #ffffff; stroke-width: 1.5"/>
     <use xlink:href="#mf454f13d8f" x="756.378947" y="334.029016" style="fill: #2877cf; stroke: #ffffff; stroke-width: 1.5"/>
     <use xlink:href="#mf454f13d8f" x="767.368421" y="307.238431" style="fill: #2877cf; stroke: #ffffff; stroke-width: 1.5"/>
     <use xlink:href="#mf454f13d8f" x="767.368421" y="304.178717" style="fill: #2877cf; stroke: #ffffff; stroke-width: 1.5"/>
     <use xlink:href="#mf454f13d8f" x="778.357895" y="288.037051" style="fill: #2877cf; stroke: #ffffff; stroke-width: 1.5"/>
     <use xlink:href="#mf454f13d8f" x="800.336842" y="291.069375" style="fill: #2877cf; stroke: #ffffff; stroke-width: 1.5"/>
     <use xlink:href="#mf454f13d8f" x="833.305263" y="276.145505" style="fill: #2877cf; stroke: #ffffff; stroke-width: 1.5"/>
    </g>
   </g>
   <g id="PathCollection_2">
    <defs>
     <path id="ma1ae2509c3" d="M 0 -3.741657 
L -3.741657 3.741657 
L 3.741657 3.741657 
z
" style="stroke: #ffffff; stroke-width: 1.3"/>
    </defs>
    <g clip-path="url(#pa8bb1d62c0)">
     <use xlink:href="#ma1ae2509c3" x="151.957895" y="604.384949" style="fill: #de713c; stroke: #ffffff; stroke-width: 1.3"/>
     <use xlink:href="#ma1ae2509c3" x="151.957895" y="603.602443" style="fill: #de713c; stroke: #ffffff; stroke-width: 1.3"/>
     <use xlink:href="#ma1ae2509c3" x="217.894737" y="603.866057" style="fill: #de713c; stroke: #ffffff; stroke-width: 1.3"/>
     <use xlink:href="#ma1ae2509c3" x="228.884211" y="602.941504" style="fill: #de713c; stroke: #ffffff; stroke-width: 1.3"/>
     <use xlink:href="#ma1ae2509c3" x="228.884211" y="435.046046" style="fill: #de713c; stroke: #ffffff; stroke-width: 1.3"/>
     <use xlink:href="#ma1ae2509c3" x="503.621053" y="429.293017" style="fill: #de713c; stroke: #ffffff; stroke-width: 1.3"/>
     <use xlink:href="#ma1ae2509c3" x="536.589474" y="391.325977" style="fill: #de713c; stroke: #ffffff; stroke-width: 1.3"/>
    </g>
   </g>
   <g id="PathCollection_3">
    <defs>
     <path id="md3dfd59310" d="M -0 6.442049 
L 6.442049 0 
L 0 -6.442049 
L -6.442049 -0 
z
" style="stroke: #ffffff; stroke-width: 1.5"/>
    </defs>
    <g clip-path="url(#pa8bb1d62c0)">
     <use xlink:href="#md3dfd59310" x="855.284211" y="304.325988" style="fill: #008578; stroke: #ffffff; stroke-width: 1.5"/>
     <use xlink:href="#md3dfd59310" x="866.273684" y="297.412882" style="fill: #008578; stroke: #ffffff; stroke-width: 1.5"/>
     <use xlink:href="#md3dfd59310" x="910.231579" y="290.101662" style="fill: #008578; stroke: #ffffff; stroke-width: 1.5"/>
     <use xlink:href="#md3dfd59310" x="1152" y="281.68685" style="fill: #008578; stroke: #ffffff; stroke-width: 1.5"/>
     <use xlink:href="#md3dfd59310" x="1217.936842" y="280.855771" style="fill: #008578; stroke: #ffffff; stroke-width: 1.5"/>
    </g>
   </g>
   <g id="legend_1">
    <g id="line2d_22">
     <path d="M 1083.321875 543.637563 
L 1094.321875 543.637563 
L 1105.321875 543.637563 
" style="fill: none; stroke: #20282e; stroke-width: 2.5; stroke-linecap: square"/>
    </g>
    <g id="text_20">
     <text style="font-size: 10px; font-family: 'DejaVu Sans'; text-anchor: start; fill: #64717b" x="1113.321875" y="547.137563" transform="rotate(-0 1113.321875 547.137563)">Running best · rollout + resample</text>
    </g>
    <g id="line2d_23">
     <defs>
      <path id="mae931e504f" d="M 0 3 
C 0.795609 3 1.55874 2.683901 2.12132 2.12132 
C 2.683901 1.55874 3 0.795609 3 0 
C 3 -0.795609 2.683901 -1.55874 2.12132 -2.12132 
C 1.55874 -2.683901 0.795609 -3 0 -3 
C -0.795609 -3 -1.55874 -2.683901 -2.12132 -2.12132 
C -2.683901 -1.55874 -3 -0.795609 -3 0 
C -3 0.795609 -2.683901 1.55874 -2.12132 2.12132 
C -1.55874 2.683901 -0.795609 3 0 3 
z
" style="stroke: #2877cf"/>
     </defs>
     <g>
      <use xlink:href="#mae931e504f" x="1094.321875" y="561.638344" style="fill: #2877cf; stroke: #2877cf"/>
     </g>
    </g>
    <g id="text_21">
     <text style="font-size: 10px; font-family: 'DejaVu Sans'; text-anchor: start; fill: #64717b" x="1113.321875" y="565.138344" transform="rotate(-0 1113.321875 565.138344)">Before decontamination</text>
    </g>
    <g id="line2d_24">
     <path d="M 1083.321875 579.639125 
L 1094.321875 579.639125 
L 1105.321875 579.639125 
" style="fill: none; stroke: #008578; stroke-width: 2; stroke-linecap: square"/>
     <defs>
      <path id="meddf344477" d="M -0 4.242641 
L 4.242641 0 
L 0 -4.242641 
L -4.242641 -0 
z
" style="stroke: #008578; stroke-linejoin: miter"/>
     </defs>
     <g>
      <use xlink:href="#meddf344477" x="1094.321875" y="579.639125" style="fill: #008578; stroke: #008578; stroke-linejoin: miter"/>
     </g>
    </g>
    <g id="text_22">
     <text style="font-size: 10px; font-family: 'DejaVu Sans'; text-anchor: start; fill: #64717b" x="1113.321875" y="583.139125" transform="rotate(-0 1113.321875 583.139125)">Decontaminated native data (+ MPNN in #277)</text>
    </g>
    <g id="line2d_25">
     <defs>
      <path id="mf80695b7c5" d="M 0 -3 
L -3 3 
L 3 3 
z
" style="stroke: #de713c; stroke-linejoin: miter"/>
     </defs>
     <g>
      <use xlink:href="#mf80695b7c5" x="1094.321875" y="597.639906" style="fill: #de713c; stroke: #de713c; stroke-linejoin: miter"/>
     </g>
    </g>
    <g id="text_23">
     <text style="font-size: 10px; font-family: 'DejaVu Sans'; text-anchor: start; fill: #64717b" x="1113.321875" y="601.139906" transform="rotate(-0 1113.321875 601.139906)">Original pairwise scoring · separate recipe</text>
    </g>
   </g>
   <g id="patch_6">
    <path d="M 258.458466 380.394177 
Q 247.048623 383.493663 235.63878 386.59315 
" style="fill: none; stroke: #b5c0c7; stroke-width: 0.9; stroke-linecap: round"/>
   </g>
   <g id="text_24">
    <g id="patch_7">
     <path d="M 260.382632 385.278621 
L 339.623178 385.278621 
L 339.623178 352.938621 
L 260.382632 352.938621 
z
" style="fill: #ffffff"/>
    </g>
    <text style="font-size: 10.5px; font-family: 'DejaVu Sans'; fill: #20282e" transform="translate(261.852632 364.655964)">#75  8 epochs</text>
    <text style="font-size: 10.5px; font-family: 'DejaVu Sans'; fill: #20282e" transform="translate(261.852632 380.280457)">0.425</text>
   </g>
   <g id="patch_8">
    <path d="M 427.042136 405.006534 
Q 461.977995 394.660248 496.913854 384.313962 
" style="fill: none; stroke: #b5c0c7; stroke-width: 0.9; stroke-linecap: round"/>
   </g>
   <g id="text_25">
    <g id="patch_9">
     <path d="M 340.352936 434.297586 
L 425.120748 434.297586 
L 425.120748 401.957586 
L 340.352936 401.957586 
z
" style="fill: #ffffff"/>
    </g>
    <text style="font-size: 10.5px; font-family: 'DejaVu Sans'; fill: #20282e" transform="translate(341.822936 413.67493)">#120  re-epoch</text>
    <text style="font-size: 10.5px; font-family: 'DejaVu Sans'; fill: #20282e" transform="translate(367.707076 429.299422)">0.436</text>
   </g>
   <g id="patch_10">
    <path d="M 519.388419 272.389544 
Q 542.141366 297.871487 564.894314 323.353431 
" style="fill: none; stroke: #b5c0c7; stroke-width: 0.9; stroke-linecap: round"/>
   </g>
   <g id="text_26">
    <g id="patch_11">
     <path d="M 457.320154 270.901034 
L 549.921951 270.901034 
L 549.921951 238.561034 
L 457.320154 238.561034 
z
" style="fill: #ffffff"/>
    </g>
    <text style="font-size: 10.5px; font-family: 'DejaVu Sans'; fill: #20282e" transform="translate(458.790154 250.278378)">#117  16 epochs</text>
    <text style="font-size: 10.5px; font-family: 'DejaVu Sans'; fill: #20282e" transform="translate(488.591287 265.90287)">0.534</text>
   </g>
   <g id="patch_12">
    <path d="M 686.55528 229.28828 
Q 678.242721 268.061274 669.930161 306.834268 
" style="fill: none; stroke: #b5c0c7; stroke-width: 0.9; stroke-linecap: round"/>
   </g>
   <g id="text_27">
    <g id="patch_13">
     <path d="M 625.337183 227.328621 
L 755.547027 227.328621 
L 755.547027 194.988621 
L 625.337183 194.988621 
z
" style="fill: #ffffff"/>
    </g>
    <text style="font-size: 10.5px; font-family: 'DejaVu Sans'; fill: #20282e" transform="translate(626.807183 206.705964)">#166  AA augmentation</text>
    <text style="font-size: 10.5px; font-family: 'DejaVu Sans'; fill: #20282e" transform="translate(675.41234 222.330457)">0.562</text>
   </g>
   <g id="patch_14">
    <path d="M 680.316736 362.623492 
Q 726.550287 327.45055 772.783838 292.277607 
" style="fill: none; stroke: #b5c0c7; stroke-width: 0.9; stroke-linecap: round"/>
   </g>
   <g id="text_28">
    <g id="patch_15">
     <path d="M 605.074583 396.171724 
L 709.872786 396.171724 
L 709.872786 363.831724 
L 605.074583 363.831724 
z
" style="fill: #ffffff"/>
    </g>
    <text style="font-size: 10.5px; font-family: 'DejaVu Sans'; fill: #20282e" transform="translate(606.544583 376.47356)">#199  AFDB + ESM</text>
    <text style="font-size: 10.5px; font-family: 'DejaVu Sans'; fill: #20282e" transform="translate(642.443919 391.17356)">0.609</text>
   </g>
   <g id="patch_16">
    <path d="M 886.51856 201.721085 
Q 861.947522 236.086279 837.376483 270.451474 
" style="fill: none; stroke: #b5c0c7; stroke-width: 0.9; stroke-linecap: round"/>
   </g>
   <g id="text_29">
    <g id="patch_17">
     <path d="M 855.078941 200.095862 
L 943.405269 200.095862 
L 943.405269 167.755862 
L 855.078941 167.755862 
z
" style="fill: #ffffff"/>
    </g>
    <text style="font-size: 10.5px; font-family: 'DejaVu Sans'; fill: #20282e" transform="translate(856.548941 180.490393)">#199  cooldown</text>
    <text style="font-size: 10.5px; font-family: 'DejaVu Sans'; fill: #20282e" transform="translate(884.21234 195.097698)">0.631</text>
   </g>
   <g id="patch_18">
    <path d="M 797.768292 443.715916 
Q 830.537694 373.732185 863.307096 303.748453 
" style="fill: none; stroke: #b5c0c7; stroke-width: 0.9; stroke-linecap: round"/>
   </g>
   <g id="text_30">
    <g id="patch_19">
     <path d="M 727.116822 477.87 
L 851.577915 477.87 
L 851.577915 445.53 
L 727.116822 445.53 
z
" style="fill: #ffffff"/>
    </g>
    <text style="font-size: 10.5px; font-family: 'DejaVu Sans'; fill: #008578" transform="translate(728.586822 458.264531)">#232  decontaminated</text>
    <text style="font-size: 10.5px; font-family: 'DejaVu Sans'; fill: #008578" transform="translate(774.317603 472.871836)">0.592</text>
   </g>
   <g id="patch_20">
    <path d="M 984.812002 389.467377 
Q 949.623689 342.584942 914.435377 295.702507 
" style="fill: none; stroke: #b5c0c7; stroke-width: 0.9; stroke-linecap: round"/>
   </g>
   <g id="text_31">
    <g id="patch_21">
     <path d="M 943.3144 423.404483 
L 1052.980337 423.404483 
L 1052.980337 391.064483 
L 943.3144 391.064483 
z
" style="fill: #ffffff"/>
    </g>
    <text style="font-size: 10.5px; font-family: 'DejaVu Sans'; fill: #008578" transform="translate(944.7844 402.781827)">#232  more training</text>
    <text style="font-size: 10.5px; font-family: 'DejaVu Sans'; fill: #008578" transform="translate(983.117603 418.406319)">0.605</text>
   </g>
   <g id="patch_22">
    <path d="M 1092.742641 340.637895 
Q 1119.889304 313.631559 1147.035966 286.625223 
" style="fill: none; stroke: #b5c0c7; stroke-width: 0.9; stroke-linecap: round"/>
   </g>
   <g id="text_32">
    <g id="patch_23">
     <path d="M 1009.892473 374.385517 
L 1140.254895 374.385517 
L 1140.254895 342.045517 
L 1009.892473 342.045517 
z
" style="fill: #ffffff"/>
    </g>
    <text style="font-size: 10.5px; font-family: 'DejaVu Sans'; fill: #008578" transform="translate(1011.362473 353.762861)">#277  + MPNN, epoch 1</text>
    <text style="font-size: 10.5px; font-family: 'DejaVu Sans'; fill: #008578" transform="translate(1060.043919 369.387353)">0.621</text>
   </g>
   <g id="patch_24">
    <path d="M 1247.300335 245.213427 
Q 1234.843611 260.333795 1222.386888 275.454163 
" style="fill: none; stroke: #b5c0c7; stroke-width: 0.9; stroke-linecap: round"/>
   </g>
   <g id="text_33">
    <g id="patch_25">
     <path d="M 1221.669073 243.668276 
L 1302.120401 243.668276 
L 1302.120401 211.328276 
L 1221.669073 211.328276 
z
" style="fill: #ffffff"/>
    </g>
    <text style="font-size: 10.5px; font-family: 'DejaVu Sans'; fill: #008578" transform="translate(1223.139073 223.04562)">#277  epoch 2</text>
    <text style="font-size: 10.5px; font-family: 'DejaVu Sans'; fill: #008578" transform="translate(1246.864971 238.670112)">0.622</text>
   </g>
  </g>
  <g id="text_34">
   <text style="font-size: 27px; font-family: 'DejaVu Sans'; text-anchor: start; fill: #20282e" x="86.4" y="51.03" transform="rotate(-0 86.4 51.03)">Best contacts-v1 model trained to date</text>
  </g>
  <g id="text_35">
   <text style="font-size: 14px; font-family: 'DejaVu Sans'; text-anchor: start; fill: #64717b" x="86.4" y="81" transform="rotate(-0 86.4 81)">Contact R-precision  ·  June–September 2026</text>
  </g>
  <g id="text_36">
   <text style="font-size: 10px; font-family: 'DejaVu Sans'; text-anchor: end; fill: #64717b" x="1382.4" y="49.41" transform="rotate(-0 1382.4 49.41)">UPDATED 30 SEP 2026</text>
  </g>
  <g id="text_37">
   <text style="font-size: 15px; font-family: 'DejaVu Sans'; text-anchor: start; fill: #20282e" x="108" y="680.4" transform="rotate(-0 108 680.4)">Since August: decontaminated training → more training → ProteinMPNN sequence expansion</text>
  </g>
  <g id="text_38">
   <text style="font-size: 10.8px; font-family: 'DejaVu Sans'; text-anchor: start; fill: #64717b" x="108" y="711.18" transform="rotate(-0 108 711.18)">Legacy-554 tracks project history; ~75% are designs. Structure baselines are compared on natural eval-val only.</text>
  </g>
  <g id="text_39">
   <text style="font-size: 10.3px; font-family: 'DejaVu Sans'; text-anchor: start; fill: #64717b" x="108" y="733.05" transform="rotate(-0 108 733.05)">Dates mark checkpoint training (scores may be retrospective). #277 uses decontaminated native backbones; redesign homology is unaudited.</text>
  </g>
  <g id="text_40">
   <text style="font-size: 10.3px; font-family: 'DejaVu Sans'; text-anchor: start; fill: #64717b" x="108" y="754.92" transform="rotate(-0 108 754.92)">100 rollouts + resampling; capped samples excluded (epoch 1: 1; epoch 2: 44). Differences &lt;0.005 are ties; eval-test was not re-read.</text>
  </g>
  <g id="text_41">
   <text style="font-size: 9.5px; font-family: 'DejaVu Sans'; text-anchor: start; fill: #64717b" x="108" y="781.65" transform="rotate(-0 108 781.65)">Sources: #180 · #232 · #277 / PR #297     |     plot_update_slide.py (no arguments)</text>
  </g>
 </g>
 <defs>
  <clipPath id="pa8bb1d62c0">
   <rect x="108" y="145.8" width="1252.8" height="473.85"/>
  </clipPath>
 </defs>
</svg>
